<svg width="140" height="44" viewBox="0 0 140 44" fill="none" xmlns="http://www.w3.org/2000/svg">
<path d="M0 8.00001C0 3.58173 3.58172 0 8 0H131.029C135.447 0 139.029 3.58172 139.029 8V36C139.029 40.4183 135.447 44.0001 131.029 44.0001H8.00001C3.58173 44.0001 0 40.4183 0 36.0001V8.00001Z" fill="#2E3A59"/>
<path d="M29.1039 21.2586C29.1164 20.3258 29.3726 19.4112 29.8489 18.5999C30.3251 17.7886 31.0059 17.1069 31.8278 16.6183C31.3057 15.8973 30.6168 15.304 29.816 14.8854C29.0152 14.4668 28.1244 14.2345 27.2145 14.207C25.2735 14.01 23.3918 15.3299 22.4027 15.3299C21.3945 15.3299 19.8716 14.2265 18.2317 14.2591C17.171 14.2923 16.1372 14.5905 15.2312 15.1248C14.3251 15.659 13.5776 16.4111 13.0616 17.3077C10.8261 21.0499 12.4935 26.5495 14.6349 29.5744C15.7063 31.0555 16.9585 32.7101 18.5969 32.6514C20.2001 32.5871 20.7989 31.6629 22.7342 31.6629C24.6516 31.6629 25.2133 32.6514 26.885 32.6141C28.6054 32.5871 29.6893 31.1263 30.7231 29.6311C31.4929 28.5757 32.0852 27.4093 32.4782 26.175C31.4787 25.7663 30.6258 25.0821 30.0257 24.2078C29.4257 23.3336 29.1051 22.3078 29.1039 21.2586Z" fill="white"/>
<path d="M25.9465 12.2176C26.8845 11.1289 27.3466 9.72947 27.2347 8.31659C25.8016 8.46212 24.4779 9.12435 23.5272 10.1713C23.0623 10.6828 22.7063 11.2778 22.4795 11.9224C22.2527 12.567 22.1594 13.2485 22.2052 13.9279C22.922 13.9351 23.6311 13.7849 24.2792 13.4886C24.9272 13.1923 25.4973 12.7578 25.9465 12.2176Z" fill="white"/>
<path d="M49.3706 28.9016H43.8994L42.5855 32.6527H40.2681L45.4503 18.7747H47.858L53.0403 32.6527H50.6834L49.3706 28.9016ZM44.466 27.1707H48.8029L46.665 21.083H46.6051L44.466 27.1707Z" fill="white"/>
<path d="M64.2323 27.5943C64.2323 30.7386 62.4917 32.7587 59.865 32.7587C59.1996 32.7923 58.5379 32.6442 57.9555 32.3311C57.3732 32.018 56.8938 31.5527 56.5723 30.9885H56.5226V36.0001H54.3745V22.5346H56.4538V24.2175H56.4933C56.8296 23.656 57.3171 23.1931 57.9038 22.8781C58.4906 22.5631 59.1547 22.4078 59.8255 22.4287C62.4815 22.4288 64.2323 24.4587 64.2323 27.5943ZM62.0244 27.5943C62.0244 25.5458 60.9294 24.199 59.2588 24.199C57.6176 24.199 56.5136 25.5741 56.5136 27.5943C56.5136 29.633 57.6176 30.9983 59.2588 30.9983C60.9294 30.9983 62.0244 29.6614 62.0244 27.5943Z" fill="white"/>
<path d="M75.7507 27.5942C75.7507 30.7385 74.0101 32.7586 71.3834 32.7586C70.718 32.7923 70.0563 32.6441 69.474 32.331C68.8916 32.0179 68.4123 31.5526 68.0907 30.9884H68.041V36H65.8929V22.5345H67.9722V24.2175H68.0117C68.348 23.6559 68.8355 23.193 69.4222 22.878C70.009 22.5631 70.6731 22.4078 71.3439 22.4287C73.9999 22.4287 75.7507 24.4587 75.7507 27.5942ZM73.5428 27.5942C73.5428 25.5457 72.4478 24.1989 70.7772 24.1989C69.136 24.1989 68.032 25.574 68.032 27.5942C68.032 29.6329 69.136 30.9982 70.7772 30.9982C72.4479 30.9982 73.5428 29.6613 73.5428 27.5942H73.5428Z" fill="white"/>
<path d="M83.363 28.7859C83.5221 30.1621 84.9049 31.0658 86.7945 31.0658C88.6051 31.0658 89.9077 30.1621 89.9077 28.9212C89.9077 27.844 89.1221 27.199 87.2618 26.757L85.4016 26.3237C82.7659 25.7082 81.5422 24.5164 81.5422 22.5824C81.5422 20.1879 83.7005 18.5432 86.7652 18.5432C89.7982 18.5432 91.8774 20.1879 91.9474 22.5824H89.779C89.6492 21.1975 88.4651 20.3615 86.7346 20.3615C85.0042 20.3615 83.8201 21.2073 83.8201 22.4384C83.8201 23.4195 84.5764 23.9969 86.4265 24.4388L88.0079 24.8143C90.9529 25.4877 92.1765 26.6314 92.1765 28.6614C92.1765 31.2578 90.0375 32.884 86.6353 32.884C83.4521 32.884 81.3029 31.296 81.1641 28.7858L83.363 28.7859Z" fill="white"/>
<path d="M96.8127 20.14V22.5345H98.8027V24.1792H96.8127V29.7573C96.8127 30.6238 97.2111 31.0277 98.0859 31.0277C98.3222 31.0237 98.5581 31.0076 98.7926 30.9796V32.6145C98.3992 32.6855 97.9995 32.7177 97.5994 32.7105C95.4807 32.7105 94.6544 31.9411 94.6544 29.9788V24.1792H93.1328V22.5345H94.6544V20.14H96.8127Z" fill="white"/>
<path d="M99.9556 27.5941C99.9556 24.4105 101.895 22.41 104.919 22.41C107.953 22.41 109.883 24.4105 109.883 27.5941C109.883 30.7864 107.963 32.7782 104.919 32.7782C101.876 32.7782 99.9556 30.7864 99.9556 27.5941ZM107.695 27.5941C107.695 25.4102 106.659 24.1213 104.919 24.1213C103.178 24.1213 102.144 25.4201 102.144 27.5941C102.144 29.7867 103.178 31.0658 104.919 31.0658C106.659 31.0658 107.694 29.7867 107.694 27.5941H107.695Z" fill="white"/>
<path d="M111.653 22.5345H113.702V24.2567H113.752C113.89 23.7188 114.216 23.2435 114.675 22.9106C115.133 22.5777 115.696 22.4075 116.269 22.4286C116.517 22.4278 116.763 22.4538 117.005 22.5061V24.4488C116.692 24.3565 116.366 24.3141 116.04 24.3233C115.728 24.311 115.417 24.3642 115.128 24.4792C114.839 24.5942 114.579 24.7683 114.367 24.9894C114.154 25.2106 113.993 25.4736 113.896 25.7605C113.798 26.0473 113.766 26.3512 113.801 26.6512V32.6527H111.653L111.653 22.5345Z" fill="white"/>
<path d="M126.909 29.6808C126.62 31.5176 124.77 32.7782 122.403 32.7782C119.359 32.7782 117.469 30.806 117.469 27.6421C117.469 24.4684 119.369 22.41 122.313 22.41C125.208 22.41 127.029 24.333 127.029 27.4009V28.1125H119.638V28.238C119.604 28.6104 119.652 28.9855 119.779 29.3385C119.906 29.6915 120.11 30.0142 120.376 30.2853C120.643 30.5563 120.965 30.7695 121.323 30.9107C121.681 31.0518 122.066 31.1177 122.453 31.104C122.96 31.15 123.47 31.0363 123.905 30.7799C124.341 30.5235 124.679 30.138 124.87 29.6808L126.909 29.6808ZM119.648 26.661H124.88C124.899 26.3261 124.847 25.9911 124.726 25.6768C124.605 25.3625 124.418 25.0758 124.177 24.8347C123.936 24.5936 123.646 24.4032 123.325 24.2756C123.004 24.1479 122.66 24.0857 122.313 24.0929C121.963 24.0909 121.616 24.1559 121.293 24.2841C120.969 24.4124 120.675 24.6013 120.427 24.8401C120.179 25.0788 119.983 25.3627 119.849 25.6752C119.715 25.9877 119.647 26.3228 119.648 26.661V26.661Z" fill="white"/>
<path d="M44.1967 8.32867C44.647 8.29743 45.0989 8.36321 45.5198 8.52127C45.9407 8.67933 46.32 8.92573 46.6305 9.24271C46.9409 9.55968 47.1747 9.93932 47.3151 10.3542C47.4554 10.7692 47.4987 11.209 47.4419 11.6421C47.4419 13.7725 46.2511 14.9971 44.1967 14.9971H41.7054V8.32867H44.1967ZM42.7767 14.054H44.077C44.3988 14.0726 44.7209 14.0216 45.0197 13.9047C45.3185 13.7878 45.5867 13.6079 45.8045 13.3782C46.0224 13.1484 46.1846 12.8746 46.2792 12.5766C46.3738 12.2787 46.3985 11.9641 46.3515 11.6557C46.3951 11.3486 46.3679 11.0359 46.2718 10.7401C46.1757 10.4443 46.0132 10.1727 45.7958 9.94484C45.5784 9.71693 45.3116 9.53833 45.0145 9.42184C44.7173 9.30535 44.3972 9.25385 44.077 9.27102H42.7767V14.054Z" fill="white"/>
<path d="M48.6521 12.4785C48.6193 12.1478 48.6585 11.8141 48.7669 11.4989C48.8754 11.1837 49.0508 10.8938 49.2819 10.648C49.513 10.4021 49.7947 10.2057 50.109 10.0713C50.4232 9.93687 50.763 9.86743 51.1066 9.86743C51.4502 9.86743 51.79 9.93687 52.1043 10.0713C52.4185 10.2057 52.7002 10.4021 52.9313 10.648C53.1624 10.8938 53.3378 11.1837 53.4463 11.4989C53.5548 11.8141 53.5939 12.1478 53.5612 12.4785C53.5945 12.8096 53.5558 13.1437 53.4477 13.4594C53.3395 13.7752 53.1642 14.0656 52.933 14.3119C52.7018 14.5582 52.4199 14.7551 52.1054 14.8898C51.7908 15.0245 51.4506 15.0941 51.1066 15.0941C50.7626 15.0941 50.4224 15.0245 50.1078 14.8898C49.7933 14.7551 49.5114 14.5582 49.2802 14.3119C49.049 14.0656 48.8737 13.7752 48.7656 13.4594C48.6574 13.1437 48.6187 12.8096 48.6521 12.4785ZM52.5046 12.4785C52.5046 11.3877 51.9978 10.7498 51.1083 10.7498C50.2154 10.7498 49.7132 11.3877 49.7132 12.4785C49.7132 13.5781 50.2155 14.2111 51.1083 14.2111C51.9978 14.2111 52.5046 13.5737 52.5046 12.4785H52.5046Z" fill="white"/>
<path d="M60.0867 14.9968H59.0211L57.9453 11.2904H57.8641L56.7929 14.9968H55.7374L54.3027 9.96442H55.3446L56.277 13.8044H56.3538L57.4239 9.96442H58.4093L59.4794 13.8044H59.5606L60.4885 9.96442H61.5157L60.0867 14.9968Z" fill="white"/>
<path d="M62.7222 9.96446H63.711V10.7639H63.7878C63.918 10.4768 64.1376 10.2361 64.416 10.0754C64.6944 9.91464 65.0178 9.84192 65.341 9.86732C65.5942 9.84891 65.8485 9.88583 66.085 9.97534C66.3215 10.0649 66.5341 10.2047 66.7071 10.3844C66.8802 10.5642 67.0091 10.7793 67.0845 11.0138C67.1599 11.2482 67.1797 11.4961 67.1425 11.739V14.9968H66.1153V11.9884C66.1153 11.1797 65.7519 10.7775 64.9922 10.7775C64.8202 10.7698 64.6486 10.7981 64.489 10.8605C64.3294 10.9229 64.1857 11.0179 64.0676 11.139C63.9496 11.2602 63.86 11.4045 63.8051 11.5623C63.7502 11.72 63.7312 11.8873 63.7494 12.0528V14.9968H62.7222L62.7222 9.96446Z" fill="white"/>
<path d="M68.7797 8H69.8069V14.9969H68.7797V8Z" fill="white"/>
<path d="M71.2347 12.4785C71.202 12.1478 71.2411 11.8141 71.3496 11.4988C71.4581 11.1836 71.6336 10.8937 71.8647 10.6479C72.0958 10.402 72.3775 10.2056 72.6918 10.0712C73.006 9.93675 73.3459 9.86731 73.6895 9.86731C74.0331 9.86731 74.373 9.93675 74.6872 10.0712C75.0015 10.2056 75.2832 10.402 75.5143 10.6479C75.7455 10.8937 75.9209 11.1836 76.0294 11.4988C76.1379 11.8141 76.177 12.1478 76.1443 12.4785C76.1776 12.8095 76.1389 13.1437 76.0307 13.4594C75.9225 13.7752 75.7472 14.0655 75.516 14.3119C75.2848 14.5582 75.0029 14.755 74.6883 14.8897C74.3737 15.0244 74.0335 15.094 73.6895 15.094C73.3455 15.094 73.0053 15.0244 72.6907 14.8897C72.3761 14.755 72.0942 14.5582 71.863 14.3119C71.6318 14.0655 71.4565 13.7752 71.3483 13.4594C71.2401 13.1437 71.2014 12.8095 71.2347 12.4785ZM75.0872 12.4785C75.0872 11.3877 74.5804 10.7497 73.6909 10.7497C72.798 10.7497 72.2958 11.3877 72.2958 12.4785C72.2958 13.5781 72.7981 14.2111 73.6909 14.2111C74.5804 14.2111 75.0872 13.5737 75.0872 12.4785H75.0872Z" fill="white"/>
<path d="M77.2255 13.5738C77.2255 12.6679 77.9231 12.1457 79.1614 12.0715L80.5713 11.9929V11.5585C80.5713 11.027 80.2078 10.7269 79.5057 10.7269C78.9323 10.7269 78.5349 10.9304 78.4209 11.2862H77.4264C77.5314 10.4219 78.3724 9.86743 79.5531 9.86743C80.858 9.86743 81.5939 10.4955 81.5939 11.5585V14.9969H80.6051V14.2897H80.5238C80.3589 14.5434 80.1272 14.7502 79.8526 14.889C79.5779 15.0278 79.2701 15.0937 78.9605 15.0798C78.742 15.1018 78.5211 15.0793 78.3122 15.0137C78.1033 14.9481 77.9109 14.8409 77.7474 14.699C77.5839 14.5571 77.453 14.3836 77.3632 14.1898C77.2733 13.996 77.2264 13.7862 77.2255 13.5738ZM80.5713 13.1438V12.723L79.3002 12.8016C78.5835 12.848 78.2584 13.0837 78.2584 13.5274C78.2584 13.9803 78.6647 14.2439 79.2235 14.2439C79.3872 14.2599 79.5526 14.2439 79.7098 14.1969C79.867 14.1498 80.0129 14.0727 80.1386 13.9701C80.2643 13.8674 80.3674 13.7414 80.4418 13.5994C80.5161 13.4575 80.5601 13.3025 80.5713 13.1438Z" fill="white"/>
<path d="M82.9443 12.4785C82.9443 10.8884 83.7897 9.88102 85.1048 9.88102C85.4301 9.86652 85.7529 9.94185 86.0355 10.0982C86.3182 10.2545 86.549 10.4854 86.7009 10.7639H86.7777V8H87.8049V14.9969H86.8206V14.2018H86.7393C86.5756 14.4784 86.3368 14.7064 86.0487 14.8612C85.7606 15.0159 85.4342 15.0915 85.1048 15.0798C83.7807 15.0798 82.9443 14.0725 82.9443 12.4785ZM84.0054 12.4785C84.0054 13.5459 84.5258 14.1882 85.3961 14.1882C86.2618 14.1882 86.7969 13.5366 86.7969 12.4829C86.7969 11.4341 86.2562 10.7732 85.3961 10.7732C84.5314 10.7732 84.0053 11.4199 84.0053 12.4785H84.0054Z" fill="white"/>
<path d="M92.0545 12.4785C92.0218 12.1478 92.0609 11.8141 92.1694 11.4989C92.2779 11.1837 92.4533 10.8938 92.6844 10.648C92.9155 10.4021 93.1972 10.2057 93.5114 10.0713C93.8256 9.93687 94.1655 9.86743 94.5091 9.86743C94.8527 9.86743 95.1925 9.93687 95.5067 10.0713C95.821 10.2057 96.1026 10.4021 96.3338 10.648C96.5649 10.8938 96.7403 11.1837 96.8488 11.4989C96.9572 11.8141 96.9964 12.1478 96.9636 12.4785C96.997 12.8096 96.9583 13.1437 96.8501 13.4594C96.7419 13.7752 96.5666 14.0656 96.3355 14.3119C96.1043 14.5582 95.8224 14.7551 95.5078 14.8898C95.1933 15.0245 94.8531 15.0941 94.5091 15.0941C94.1651 15.0941 93.8248 15.0245 93.5103 14.8898C93.1958 14.7551 92.9138 14.5582 92.6827 14.3119C92.4515 14.0656 92.2762 13.7752 92.168 13.4594C92.0598 13.1437 92.0212 12.8096 92.0545 12.4785ZM95.9071 12.4785C95.9071 11.3877 95.4002 10.7498 94.5108 10.7498C93.6179 10.7498 93.1156 11.3877 93.1156 12.4785C93.1156 13.5781 93.6179 14.2111 94.5108 14.2111C95.4003 14.2111 95.9071 13.5737 95.9071 12.4785Z" fill="white"/>
<path d="M98.3422 9.96446H99.331V10.7639H99.4078C99.538 10.4768 99.7576 10.2361 100.036 10.0754C100.314 9.91464 100.638 9.84192 100.961 9.86732C101.214 9.84891 101.469 9.88583 101.705 9.97534C101.941 10.0649 102.154 10.2047 102.327 10.3844C102.5 10.5642 102.629 10.7793 102.704 11.0138C102.78 11.2482 102.8 11.4961 102.763 11.739V14.9968H101.735V11.9884C101.735 11.1797 101.372 10.7775 100.612 10.7775C100.44 10.7698 100.269 10.7981 100.109 10.8605C99.9494 10.9229 99.8057 11.0179 99.6876 11.139C99.5696 11.2602 99.48 11.4045 99.4251 11.5623C99.3702 11.72 99.3512 11.8873 99.3694 12.0528V14.9968H98.3422V9.96446Z" fill="white"/>
<path d="M108.566 8.71155V9.98737H109.694V10.8239H108.566V13.4116C108.566 13.9387 108.791 14.1696 109.302 14.1696C109.433 14.1692 109.564 14.1615 109.694 14.1466V14.9739C109.509 15.0058 109.322 15.0228 109.135 15.0246C107.993 15.0246 107.538 14.6361 107.538 13.6659V10.8239H106.711V9.98733H107.538V8.71155H108.566Z" fill="white"/>
<path d="M111.098 8H112.116V10.7732H112.197C112.334 10.4834 112.559 10.2413 112.843 10.08C113.127 9.9187 113.456 9.84597 113.784 9.87173C114.036 9.85847 114.288 9.89914 114.522 9.99083C114.755 10.0825 114.965 10.223 115.137 10.4022C115.308 10.5813 115.436 10.7949 115.512 11.0275C115.588 11.2601 115.61 11.506 115.577 11.7478V14.9969H114.548V11.9928C114.548 11.189 114.161 10.7819 113.435 10.7819C113.259 10.7679 113.081 10.7914 112.915 10.8507C112.749 10.91 112.598 11.0037 112.473 11.1252C112.348 11.2467 112.253 11.3931 112.192 11.5542C112.132 11.7153 112.109 11.8872 112.125 12.0578V14.9968H111.098L111.098 8Z" fill="white"/>
<path d="M121.566 13.6381C121.426 14.098 121.124 14.4959 120.712 14.762C120.3 15.0282 119.804 15.1457 119.311 15.094C118.968 15.1028 118.627 15.0393 118.312 14.9079C117.997 14.7766 117.715 14.5805 117.487 14.3334C117.258 14.0863 117.088 13.7939 116.987 13.4768C116.887 13.1596 116.86 12.8251 116.906 12.4965C116.861 12.167 116.889 11.8318 116.989 11.5136C117.089 11.1955 117.258 10.9018 117.486 10.6525C117.713 10.4032 117.994 10.2041 118.308 10.0687C118.622 9.93319 118.962 9.86456 119.306 9.86739C120.754 9.86739 121.628 10.824 121.628 12.4043V12.7508H117.953V12.8065C117.937 12.9912 117.961 13.1771 118.023 13.3522C118.086 13.5274 118.186 13.688 118.316 13.8238C118.447 13.9595 118.605 14.0674 118.781 14.1405C118.957 14.2135 119.147 14.2502 119.339 14.2482C119.585 14.2767 119.834 14.2339 120.054 14.1253C120.275 14.0166 120.457 13.8471 120.577 13.6381L121.566 13.6381ZM117.953 12.0163H120.582C120.595 11.8474 120.571 11.6778 120.512 11.5183C120.453 11.3588 120.36 11.213 120.24 11.0902C120.119 10.9674 119.973 10.8704 119.811 10.8054C119.65 10.7404 119.476 10.7088 119.301 10.7127C119.123 10.7105 118.947 10.7428 118.782 10.8075C118.617 10.8723 118.468 10.9682 118.342 11.0897C118.217 11.2112 118.118 11.3558 118.051 11.5149C117.984 11.6741 117.95 11.8446 117.953 12.0163H117.953Z" fill="white"/>
</svg>
