<svg width="133" height="44" viewBox="0 0 133 44" fill="none" xmlns="http://www.w3.org/2000/svg">
<path d="M0.0289917 8.00001C0.0289917 3.58173 3.61071 0 8.02899 0H124.908C129.326 0 132.908 3.58172 132.908 8V36C132.908 40.4183 129.326 44.0001 124.908 44.0001H8.029C3.61073 44.0001 0.0289917 40.4183 0.0289917 36.0001V8.00001Z" fill="#2E3A59"/>
<path d="M47.2259 11.4678C47.2259 12.3322 46.991 13.0217 46.521 13.5259C45.9947 14.133 45.2993 14.4418 44.4534 14.4418C43.6358 14.4418 42.9497 14.133 42.3764 13.5156C41.8031 12.8982 41.5212 12.1264 41.5212 11.2209C41.5212 10.305 41.8031 9.54355 42.3764 8.92613C42.9497 8.30871 43.6358 8 44.4534 8C44.8576 8 45.2429 8.08232 45.6094 8.25726C45.9759 8.43219 46.2673 8.65858 46.4929 8.94671L45.9947 9.4921C45.6188 9.00845 45.1113 8.76149 44.4534 8.76149C43.8613 8.76149 43.3444 8.98787 42.9121 9.45094C42.4798 9.90372 42.2636 10.5006 42.2636 11.2312C42.2636 11.9618 42.4798 12.5586 42.9121 13.0114C43.3444 13.4642 43.8613 13.7009 44.4534 13.7009C45.0831 13.7009 45.6094 13.4745 46.0323 13.0114C46.3049 12.713 46.4647 12.2911 46.5023 11.756H44.4534V11.0151H47.1883C47.2071 11.1694 47.2259 11.3238 47.2259 11.4678Z" fill="white" stroke="white" stroke-width="0.2" stroke-miterlimit="10"/>
<path d="M51.5585 8.89521H48.9928V10.8504H51.3047V11.5913H48.9928V13.5465H51.5585V14.3079H48.2691V8.13373H51.5585V8.89521Z" fill="white" stroke="white" stroke-width="0.2" stroke-miterlimit="10"/>
<path d="M54.6128 14.308H53.8891V8.89528H52.3102V8.13379H56.1823V8.89528H54.6034V14.308H54.6128Z" fill="white" stroke="white" stroke-width="0.2" stroke-miterlimit="10"/>
<path d="M58.9924 14.3079V8.13373H59.7161V14.3079H58.9924Z" fill="white" stroke="white" stroke-width="0.2" stroke-miterlimit="10"/>
<path d="M62.9303 14.3079H62.2066V8.89521H60.6277V8.13373H64.4998V8.89521H62.9209V14.3079H62.9303Z" fill="white" stroke="white" stroke-width="0.2" stroke-miterlimit="10"/>
<path d="M71.84 13.5053C71.2855 14.133 70.5995 14.4418 69.7724 14.4418C68.9454 14.4418 68.2593 14.133 67.7048 13.5053C67.1503 12.8776 66.8777 12.1161 66.8777 11.2209C66.8777 10.3256 67.1503 9.55384 67.7048 8.93642C68.2593 8.30871 68.9454 8 69.7724 8C70.5901 8 71.2761 8.30871 71.84 8.93642C72.3945 9.56413 72.6765 10.3256 72.6765 11.2209C72.6671 12.1264 72.3945 12.8879 71.84 13.5053ZM68.2405 12.9908C68.654 13.4539 69.1709 13.6803 69.7724 13.6803C70.3739 13.6803 70.8908 13.4539 71.3043 12.9908C71.7178 12.5278 71.934 11.9412 71.934 11.2209C71.934 10.5006 71.7272 9.91401 71.3043 9.45094C70.8908 8.98787 70.3739 8.76149 69.7724 8.76149C69.1709 8.76149 68.654 8.98787 68.2405 9.45094C67.827 9.91401 67.6108 10.5006 67.6108 11.2209C67.6108 11.9412 67.827 12.5278 68.2405 12.9908Z" fill="white" stroke="white" stroke-width="0.2" stroke-miterlimit="10"/>
<path d="M73.6912 14.3079V8.13373H74.5746L77.3189 12.9393H77.3471L77.3189 11.7456V8.13373H78.0426V14.3079H77.2907L74.4242 9.27596H74.396L74.4242 10.4696V14.3079H73.6912Z" fill="white" stroke="white" stroke-width="0.2" stroke-miterlimit="10"/>
<path d="M66.6989 23.3121C64.4903 23.3121 62.6859 25.154 62.6859 27.6855C62.6859 30.2066 64.4903 32.0589 66.6989 32.0589C68.9075 32.0589 70.712 30.2066 70.712 27.6855C70.712 25.154 68.9075 23.3121 66.6989 23.3121ZM66.6989 30.3404C65.4865 30.3404 64.4433 29.2496 64.4433 27.6855C64.4433 26.111 65.4865 25.0305 66.6989 25.0305C67.9113 25.0305 68.9545 26.111 68.9545 27.6855C68.9545 29.2496 67.9019 30.3404 66.6989 30.3404ZM57.9398 23.3121C55.7312 23.3121 53.9267 25.154 53.9267 27.6855C53.9267 30.2066 55.7312 32.0589 57.9398 32.0589C60.1483 32.0589 61.9528 30.2066 61.9528 27.6855C61.9528 25.154 60.1483 23.3121 57.9398 23.3121ZM57.9398 30.3404C56.7274 30.3404 55.6842 29.2496 55.6842 27.6855C55.6842 26.111 56.7274 25.0305 57.9398 25.0305C59.1521 25.0305 60.1953 26.111 60.1953 27.6855C60.1953 29.2496 59.1521 30.3404 57.9398 30.3404ZM47.5265 24.6601V26.5124H51.5865C51.4644 27.5517 51.1448 28.3235 50.6655 28.8483C50.0734 29.4966 49.1524 30.2066 47.5359 30.2066C45.036 30.2066 43.0811 28.0045 43.0811 25.2672C43.0811 22.53 45.036 20.3279 47.5359 20.3279C48.8798 20.3279 49.8667 20.9041 50.5903 21.6553L51.7839 20.3484C50.7689 19.2885 49.4249 18.4756 47.5265 18.4756C44.1055 18.4756 41.2297 21.5215 41.2297 25.2775C41.2297 29.0232 44.1055 32.0794 47.5265 32.0794C49.378 32.0794 50.7689 31.4209 51.8591 30.1757C52.9775 28.9512 53.3252 27.2224 53.3252 25.8332C53.3252 25.401 53.297 24.9997 53.2312 24.6704H47.5265V24.6601ZM90.11 26.1007C89.781 25.1232 88.766 23.3121 86.689 23.3121C84.6308 23.3121 82.9203 25.082 82.9203 27.6855C82.9203 30.1346 84.612 32.0589 86.8864 32.0589C88.719 32.0589 89.781 30.8343 90.2133 30.1243L88.8506 29.1261C88.3995 29.8567 87.7792 30.3404 86.8864 30.3404C85.9935 30.3404 85.3544 29.8876 84.9503 29.0129L90.2979 26.5947L90.11 26.1007ZM84.659 27.562C84.612 25.8744 85.8526 25.01 86.7454 25.01C87.4409 25.01 88.0329 25.3907 88.2303 25.9361L84.659 27.562ZM80.317 31.8016H82.0745V18.9387H80.317V31.8016ZM77.4411 24.2896H77.3753C76.9806 23.7751 76.2287 23.3121 75.2701 23.3121C73.2683 23.3121 71.4356 25.2364 71.4356 27.706C71.4356 30.1551 73.2683 32.0691 75.2701 32.0691C76.2193 32.0691 76.9806 31.6061 77.3753 31.071H77.4317V31.6987C77.4317 33.376 76.6141 34.2713 75.2983 34.2713C74.2269 34.2713 73.5596 33.4275 73.2871 32.7174L71.7552 33.4172C72.1969 34.58 73.3623 36.0001 75.2983 36.0001C77.3565 36.0001 79.0952 34.6726 79.0952 31.4414V23.5796H77.4317V24.2896H77.4411ZM75.4205 30.3404C74.2081 30.3404 73.1931 29.229 73.1931 27.706C73.1931 26.1625 74.2081 25.0408 75.4205 25.0408C76.6141 25.0408 77.5539 26.1728 77.5539 27.706C77.5633 29.229 76.6235 30.3404 75.4205 30.3404ZM98.3428 18.9387H94.1418V31.8016H95.8993V26.924H98.3522C100.298 26.924 102.205 25.3804 102.205 22.9313C102.205 20.4822 100.279 18.9387 98.3428 18.9387ZM98.3804 25.1334H95.8899V20.7189H98.3804C99.6962 20.7189 100.439 21.9126 100.439 22.921C100.439 23.9295 99.6962 25.1334 98.3804 25.1334ZM109.226 23.2915C107.957 23.2915 106.641 23.9089 106.096 25.2569L107.656 25.967C107.985 25.2569 108.606 25.0203 109.254 25.0203C110.156 25.0203 111.087 25.6171 111.096 26.677V26.8108C110.777 26.6153 110.1 26.3168 109.264 26.3168C107.581 26.3168 105.88 27.3253 105.88 29.2084C105.88 30.9269 107.252 32.0383 108.794 32.0383C109.968 32.0383 110.626 31.462 111.03 30.7828H111.087V31.781H112.779V26.8519C112.788 24.5675 111.228 23.2915 109.226 23.2915ZM109.01 30.3404C108.437 30.3404 107.638 30.0214 107.638 29.2496C107.638 28.2617 108.634 27.881 109.499 27.881C110.269 27.881 110.636 28.0662 111.096 28.3132C110.965 29.4966 110.025 30.3404 109.01 30.3404ZM118.953 23.5693L116.942 29.1467H116.886L114.799 23.5693H112.91L116.04 31.3694L114.254 35.7016H116.087L120.908 23.5693H118.953ZM103.164 31.8016H104.922V18.9387H103.164V31.8016Z" fill="white"/>
<path d="M12.4706 8.68953C12.198 9.00853 12.0383 9.50246 12.0383 10.1302V32.8924C12.0383 33.5304 12.198 34.0244 12.4706 34.3331L12.5364 34.4051L24.1808 21.6657V21.5113V21.357L12.5364 8.61749L12.4706 8.68953Z" fill="url(#paint0_linear_1_322)"/>
<path d="M28.0623 25.9155L24.1808 21.6656V21.5113V21.3569L28.0623 17.107L28.1469 17.1584L32.7426 20.0192C34.0584 20.8321 34.0584 22.1698 32.7426 22.9931L28.1469 25.8538L28.0623 25.9155Z" fill="url(#paint1_linear_1_322)"/>
<path d="M28.1472 25.8539L24.1811 21.5114L12.4709 34.3331C12.9032 34.8374 13.6175 34.8991 14.4257 34.3949L28.1472 25.8539Z" fill="url(#paint2_linear_1_322)"/>
<path d="M28.1473 17.1687L14.4164 8.6277C13.6082 8.12348 12.8939 8.18522 12.4616 8.68945L24.1812 21.5112L28.1473 17.1687Z" fill="url(#paint3_linear_1_322)"/>
<path opacity="0.2" d="M28.063 25.7612L14.4168 34.2508C13.6555 34.7241 12.9694 34.6933 12.5371 34.2611L12.4713 34.3331L12.5371 34.4051C12.9788 34.8373 13.6555 34.8682 14.4168 34.3948L28.1476 25.8538L28.063 25.7612Z" fill="#2E3A59"/>
<path opacity="0.12" d="M12.471 34.1889C12.1985 33.8699 12.0387 33.376 12.0387 32.7483V32.9026C12.0387 33.5406 12.1985 34.0346 12.471 34.3433L12.5368 34.2713L12.471 34.1889Z" fill="#2E3A59"/>
<path opacity="0.12" d="M32.7427 22.8491L28.053 25.7613L28.1376 25.8539L32.7333 22.9932C33.3912 22.5816 33.7201 22.0465 33.7201 21.5114C33.6731 21.995 33.3442 22.4786 32.7427 22.8491Z" fill="#2E3A59"/>
<path opacity="0.25" d="M14.4161 8.77194L32.7427 20.1737C33.3348 20.5441 33.6732 21.0175 33.7295 21.5114C33.7295 20.9763 33.4006 20.4309 32.7427 20.0296L14.4161 8.62788C13.1004 7.81494 12.029 8.4941 12.029 10.1406V10.2949C12.029 8.63817 13.1098 7.95901 14.4161 8.77194Z" fill="white"/>
<defs>
<linearGradient id="paint0_linear_1_322" x1="23.1467" y1="9.89319" x2="5.9478" y2="25.6011" gradientUnits="userSpaceOnUse">
<stop stop-color="#00A0FF"/>
<stop offset="0.00657445" stop-color="#00A1FF"/>
<stop offset="0.2601" stop-color="#00BEFF"/>
<stop offset="0.5122" stop-color="#00D2FF"/>
<stop offset="0.7604" stop-color="#00DFFF"/>
<stop offset="1" stop-color="#00E3FF"/>
</linearGradient>
<linearGradient id="paint1_linear_1_322" x1="34.4573" y1="21.5127" x2="11.7164" y2="21.5127" gradientUnits="userSpaceOnUse">
<stop stop-color="#FFE000"/>
<stop offset="0.4087" stop-color="#FFBD00"/>
<stop offset="0.7754" stop-color="#FFA500"/>
<stop offset="1" stop-color="#FF9C00"/>
</linearGradient>
<linearGradient id="paint2_linear_1_322" x1="25.9921" y1="23.8741" x2="2.66901" y2="45.1753" gradientUnits="userSpaceOnUse">
<stop stop-color="#FF3A44"/>
<stop offset="1" stop-color="#C31162"/>
</linearGradient>
<linearGradient id="paint3_linear_1_322" x1="9.51742" y1="1.11184" x2="19.9322" y2="10.6237" gradientUnits="userSpaceOnUse">
<stop stop-color="#32A071"/>
<stop offset="0.0685" stop-color="#2DA771"/>
<stop offset="0.4762" stop-color="#15CF74"/>
<stop offset="0.8009" stop-color="#06E775"/>
<stop offset="1" stop-color="#00F076"/>
</linearGradient>
</defs>
</svg>
